<?xml version="1.0" encoding="UTF-8"?><svg xmlns="http://www.w3.org/2000/svg" xmlns:xlink="http://www.w3.org/1999/xlink" fill-opacity="1" color-rendering="auto" color-interpolation="auto" text-rendering="auto" stroke="black" stroke-linecap="square" width="798" stroke-miterlimit="10" shape-rendering="auto" stroke-opacity="1" fill="black" stroke-dasharray="none" font-weight="normal" stroke-width="1" height="693" font-family="'Dialog'" font-style="normal" stroke-linejoin="miter" font-size="12px" stroke-dashoffset="0" image-rendering="auto">
  <!--Generated by ySVG 2.5-->
  <defs id="genericDefs"/>
  <g>
    <defs id="defs1">
      <clipPath clipPathUnits="userSpaceOnUse" id="clipPath1">
        <path d="M0 0 L798 0 L798 693 L0 693 L0 0 Z"/>
      </clipPath>
      <clipPath clipPathUnits="userSpaceOnUse" id="clipPath2">
        <path d="M-205 -798 L719.6957 -798 L719.6957 5.0252 L-205 5.0252 L-205 -798 Z"/>
      </clipPath>
      <clipPath clipPathUnits="userSpaceOnUse" id="clipPath3">
        <path d="M552.0645 -491.6494 L552.0645 433.0463 L-250.9607 433.0463 L-250.9607 -491.6494 L552.0645 -491.6494 Z"/>
      </clipPath>
      <clipPath clipPathUnits="userSpaceOnUse" id="clipPath4">
        <path d="M557.8945 -112.6494 L557.8945 812.0463 L-245.1307 812.0463 L-245.1307 -112.6494 L557.8945 -112.6494 Z"/>
      </clipPath>
      <clipPath clipPathUnits="userSpaceOnUse" id="clipPath5">
        <path d="M278.3328 -525.6494 L278.3328 399.0463 L-524.6924 399.0463 L-524.6924 -525.6494 L278.3328 -525.6494 Z"/>
      </clipPath>
      <clipPath clipPathUnits="userSpaceOnUse" id="clipPath6">
        <path d="M657.658 -525.6494 L657.658 399.0463 L-145.3672 399.0463 L-145.3672 -525.6494 L657.658 -525.6494 Z"/>
      </clipPath>
    </defs>
    <g fill="white" text-rendering="geometricPrecision" shape-rendering="geometricPrecision" transform="scale(0.863,0.863) translate(205,798)" stroke="white">
      <rect x="-205" width="925" height="804" y="-798" clip-path="url(#clipPath2)" stroke="none"/>
    </g>
    <g fill="rgb(255,255,204)" text-rendering="geometricPrecision" shape-rendering="geometricPrecision" transform="matrix(0.863,0,0,0.863,176.9123,688.6633)" stroke="rgb(255,255,204)">
      <rect x="279" width="34" height="800" y="-796.5" clip-path="url(#clipPath2)" stroke="none"/>
    </g>
    <g text-rendering="geometricPrecision" stroke-miterlimit="1.45" stroke-width="2" shape-rendering="geometricPrecision" transform="matrix(0.863,0,0,0.863,176.9123,688.6633)" stroke-linecap="butt">
      <rect fill="none" x="279" width="34" height="800" y="-796.5" clip-path="url(#clipPath2)"/>
    </g>
    <g text-rendering="geometricPrecision" stroke-miterlimit="1.45" shape-rendering="geometricPrecision" font-family="sans-serif" transform="matrix(-0,-0.863,0.863,-0,424.2869,476.4242)" stroke-linecap="butt">
      <text x="2" xml:space="preserve" y="14.0645" clip-path="url(#clipPath3)" stroke="none">CPU's RAM address space, 0x4000_0000 .. 0x400b_ffff</text>
    </g>
    <g fill="rgb(153,204,255)" text-rendering="geometricPrecision" shape-rendering="geometricPrecision" transform="matrix(0.863,0,0,0.863,176.9123,688.6633)" stroke="rgb(153,204,255)">
      <rect x="-66" width="250" height="145.0394" y="-710.5" clip-path="url(#clipPath2)" stroke="none"/>
    </g>
    <g text-rendering="geometricPrecision" stroke-miterlimit="1.45" stroke-width="2" shape-rendering="geometricPrecision" transform="matrix(0.863,0,0,0.863,176.9123,688.6633)" stroke-linecap="butt">
      <rect fill="none" x="-66" width="250" height="145.0394" y="-710.5" clip-path="url(#clipPath2)"/>
      <text x="-5.377" y="-640.617" clip-path="url(#clipPath2)" font-family="sans-serif" stroke="none" stroke-width="1" xml:space="preserve">0xf000_0000 .. 0xffff_ffff</text>
      <text x="17.9814" y="-625.9158" clip-path="url(#clipPath2)" font-family="sans-serif" stroke="none" stroke-width="1" xml:space="preserve">I/O, peripherals</text>
      <rect fill="none" x="-66" width="250" height="94.4606" y="-565.4606" clip-path="url(#clipPath2)"/>
      <text x="-2.3711" y="-513.5164" clip-path="url(#clipPath2)" font-family="sans-serif" stroke="none" stroke-width="1" xml:space="preserve">Unused address space</text>
    </g>
    <g fill="rgb(153,255,255)" text-rendering="geometricPrecision" shape-rendering="geometricPrecision" transform="matrix(0.863,0,0,0.863,176.9123,688.6633)" stroke="rgb(153,255,255)">
      <rect x="-66" width="250" height="42" y="-471" clip-path="url(#clipPath2)" stroke="none"/>
    </g>
    <g text-rendering="geometricPrecision" stroke-miterlimit="1.45" stroke-width="2" shape-rendering="geometricPrecision" transform="matrix(0.863,0,0,0.863,176.9123,688.6633)" stroke-linecap="butt">
      <rect fill="none" x="-66" width="250" height="42" y="-471" clip-path="url(#clipPath2)"/>
      <text x="-6.373" y="-452.6367" clip-path="url(#clipPath2)" font-family="sans-serif" stroke="none" stroke-width="1" xml:space="preserve">ld_ramEnd .. 0x400b_ffff</text>
      <text x="5.6416" y="-437.9355" clip-path="url(#clipPath2)" font-family="sans-serif" stroke="none" stroke-width="1" xml:space="preserve">Unused RAM space</text>
    </g>
    <g fill="rgb(153,204,255)" text-rendering="geometricPrecision" shape-rendering="geometricPrecision" transform="matrix(0.863,0,0,0.863,176.9123,688.6633)" stroke="rgb(153,204,255)">
      <rect x="-66" width="250" height="64" y="-428.5" clip-path="url(#clipPath2)" stroke="none"/>
    </g>
    <g text-rendering="geometricPrecision" stroke-miterlimit="1.45" stroke-width="2" shape-rendering="geometricPrecision" transform="matrix(0.863,0,0,0.863,176.9123,688.6633)" stroke-linecap="butt">
      <rect fill="none" x="-66" width="250" height="64" y="-428.5" clip-path="url(#clipPath2)"/>
      <text x="-58.0557" y="-399.1367" clip-path="url(#clipPath2)" font-family="sans-serif" stroke="none" stroke-width="1" xml:space="preserve">ld_cachedRamEnd - ld_ramEnd-1 (variable)</text>
      <text x="-53.7314" y="-384.4355" clip-path="url(#clipPath2)" font-family="sans-serif" stroke="none" stroke-width="1" xml:space="preserve">Uncached RAM space used by application</text>
    </g>
    <g fill="rgb(255,255,204)" text-rendering="geometricPrecision" shape-rendering="geometricPrecision" transform="matrix(0.863,0,0,0.863,176.9123,688.6633)" stroke="rgb(255,255,204)">
      <rect x="-100" width="34" height="649" y="-710.5" clip-path="url(#clipPath2)" stroke="none"/>
    </g>
    <g text-rendering="geometricPrecision" stroke-miterlimit="1.45" stroke-width="2" shape-rendering="geometricPrecision" transform="matrix(0.863,0,0,0.863,176.9123,688.6633)" stroke-linecap="butt">
      <rect fill="none" x="-100" width="34" height="649" y="-710.5" clip-path="url(#clipPath2)"/>
    </g>
    <g text-rendering="geometricPrecision" stroke-miterlimit="1.45" shape-rendering="geometricPrecision" font-family="sans-serif" transform="matrix(-0,-0.863,0.863,-0,97.2149,481.4555)" stroke-linecap="butt">
      <text x="2" xml:space="preserve" y="14.0645" clip-path="url(#clipPath4)" stroke="none">CPU's 32 Bit address space, 0x0000_0000 .. 0xffff_ffff</text>
    </g>
    <g text-rendering="geometricPrecision" stroke-miterlimit="1.45" stroke-width="2" shape-rendering="geometricPrecision" transform="matrix(0.863,0,0,0.863,176.9123,688.6633)" stroke-linecap="butt">
      <rect fill="none" x="-66" width="250" height="64" y="-300.5" clip-path="url(#clipPath2)"/>
      <text x="-2.3711" y="-263.7861" clip-path="url(#clipPath2)" font-family="sans-serif" stroke="none" stroke-width="1" xml:space="preserve">Unused address space</text>
    </g>
    <g fill="rgb(153,255,255)" text-rendering="geometricPrecision" shape-rendering="geometricPrecision" transform="matrix(0.863,0,0,0.863,176.9123,688.6633)" stroke="rgb(153,255,255)">
      <rect x="-66" width="250" height="42" y="-236.5" clip-path="url(#clipPath2)" stroke="none"/>
    </g>
    <g text-rendering="geometricPrecision" stroke-miterlimit="1.45" stroke-width="2" shape-rendering="geometricPrecision" transform="matrix(0.863,0,0,0.863,176.9123,688.6633)" stroke-linecap="butt">
      <rect fill="none" x="-66" width="250" height="42" y="-236.5" clip-path="url(#clipPath2)"/>
      <text x="-13.0527" y="-218.1367" clip-path="url(#clipPath2)" font-family="sans-serif" stroke="none" stroke-width="1" xml:space="preserve">ld_romEnd .. 0x0158_0000</text>
      <text x="-9.3643" y="-203.4355" clip-path="url(#clipPath2)" font-family="sans-serif" stroke="none" stroke-width="1" xml:space="preserve">Unused flash ROM space</text>
    </g>
    <g fill="rgb(153,204,255)" text-rendering="geometricPrecision" shape-rendering="geometricPrecision" transform="matrix(0.863,0,0,0.863,176.9123,688.6633)" stroke="rgb(153,204,255)">
      <rect x="-66" width="250" height="69" y="-194.5" clip-path="url(#clipPath2)" stroke="none"/>
    </g>
    <g text-rendering="geometricPrecision" stroke-miterlimit="1.45" stroke-width="2" shape-rendering="geometricPrecision" transform="matrix(0.863,0,0,0.863,176.9123,688.6633)" stroke-linecap="butt">
      <rect fill="none" x="-66" width="250" height="69" y="-194.5" clip-path="url(#clipPath2)"/>
      <text x="-39.7041" y="-162.6367" clip-path="url(#clipPath2)" font-family="sans-serif" stroke="none" stroke-width="1" xml:space="preserve">ld_romStart .. ld_romEnd-1 (variable)</text>
      <text x="-42.0508" y="-147.9355" clip-path="url(#clipPath2)" font-family="sans-serif" stroke="none" stroke-width="1" xml:space="preserve">Flash ROM space used by application</text>
      <rect fill="none" x="-66" width="250" height="64" y="-125.5" clip-path="url(#clipPath2)"/>
      <text x="-18.7363" y="-96.1367" clip-path="url(#clipPath2)" font-family="sans-serif" stroke="none" stroke-width="1" xml:space="preserve">0x0000_0000 .. 0x00f9_0000</text>
      <text x="-2.3711" y="-81.4355" clip-path="url(#clipPath2)" font-family="sans-serif" stroke="none" stroke-width="1" xml:space="preserve">Unused address space</text>
    </g>
    <g fill="rgb(255,255,68)" text-rendering="geometricPrecision" shape-rendering="geometricPrecision" transform="matrix(0.863,0,0,0.863,176.9123,688.6633)" stroke="rgb(255,255,68)">
      <rect x="313" width="34" height="310.2163" y="-796.5" clip-path="url(#clipPath2)" stroke="none"/>
    </g>
    <g text-rendering="geometricPrecision" stroke-miterlimit="1.45" stroke-width="2" shape-rendering="geometricPrecision" transform="matrix(0.863,0,0,0.863,176.9123,688.6633)" stroke-linecap="butt">
      <rect fill="none" x="313" width="34" height="310.2163" y="-796.5" clip-path="url(#clipPath2)"/>
    </g>
    <g text-rendering="geometricPrecision" stroke-miterlimit="1.45" shape-rendering="geometricPrecision" font-family="sans-serif" transform="matrix(-0,-0.863,0.863,-0,453.6284,240.1974)" stroke-linecap="butt">
      <text x="2" xml:space="preserve" y="14.0645" clip-path="url(#clipPath5)" stroke="none">Unchached (to support sharing across cores)</text>
    </g>
    <g fill="rgb(153,255,255)" text-rendering="geometricPrecision" shape-rendering="geometricPrecision" transform="matrix(0.863,0,0,0.863,176.9123,688.6633)" stroke="rgb(153,255,255)">
      <rect x="347" width="250" height="55" y="-51.5" clip-path="url(#clipPath2)" stroke="none"/>
    </g>
    <g text-rendering="geometricPrecision" stroke-miterlimit="1.45" stroke-width="2" shape-rendering="geometricPrecision" transform="matrix(0.863,0,0,0.863,176.9123,688.6633)" stroke-linecap="butt">
      <rect fill="none" x="347" width="250" height="55" y="-51.5" clip-path="url(#clipPath2)"/>
      <text x="383.9336" y="-33.9873" clip-path="url(#clipPath2)" font-family="sans-serif" stroke="none" stroke-width="1" xml:space="preserve">0x4000_0000 .. ld_dataP4Start-1</text>
      <text x="355.9551" y="-19.2861" clip-path="url(#clipPath2)" font-family="sans-serif" stroke="none" stroke-width="1" xml:space="preserve">*.data.OS, *.bss.OS, OS stacks of all cores,</text>
      <text x="381.6309" y="-4.585" clip-path="url(#clipPath2)" font-family="sans-serif" stroke="none" stroke-width="1" xml:space="preserve">INTC vector table, printf ringbuffer</text>
      <rect fill="none" x="347" width="250" height="76" y="-796.5" clip-path="url(#clipPath2)"/>
      <text x="406.627" y="-761.1367" clip-path="url(#clipPath2)" font-family="sans-serif" stroke="none" stroke-width="1" xml:space="preserve">ld_ramEnd .. 0x400b_ffff</text>
      <text x="418.6416" y="-746.4355" clip-path="url(#clipPath2)" font-family="sans-serif" stroke="none" stroke-width="1" xml:space="preserve">Unused RAM space</text>
    </g>
    <g fill="rgb(153,204,255)" text-rendering="geometricPrecision" shape-rendering="geometricPrecision" transform="matrix(0.863,0,0,0.863,176.9123,688.6633)" stroke="rgb(153,204,255)">
      <rect x="347" width="250" height="42" y="-538.9712" clip-path="url(#clipPath2)" stroke="none"/>
    </g>
    <g text-rendering="geometricPrecision" stroke-miterlimit="1.45" stroke-width="2" shape-rendering="geometricPrecision" transform="matrix(0.863,0,0,0.863,176.9123,688.6633)" stroke-linecap="butt">
      <rect fill="none" x="347" width="250" height="42" y="-538.9712" clip-path="url(#clipPath2)"/>
      <text x="371.2598" y="-520.6078" clip-path="url(#clipPath2)" font-family="sans-serif" stroke="none" stroke-width="1" xml:space="preserve">ld_dataOSEnd .. ld_dataSharedEnd-1</text>
      <text x="383.6201" y="-505.9067" clip-path="url(#clipPath2)" font-family="sans-serif" stroke="none" stroke-width="1" xml:space="preserve">*.Shared (between all processes)</text>
    </g>
    <g fill="rgb(153,204,255)" text-rendering="geometricPrecision" shape-rendering="geometricPrecision" transform="matrix(0.863,0,0,0.863,176.9123,688.6633)" stroke="rgb(153,204,255)">
      <rect x="347" width="250" height="42" y="-177.5" clip-path="url(#clipPath2)" stroke="none"/>
    </g>
    <g text-rendering="geometricPrecision" stroke-miterlimit="1.45" stroke-width="2" shape-rendering="geometricPrecision" transform="matrix(0.863,0,0,0.863,176.9123,688.6633)" stroke-linecap="butt">
      <rect fill="none" x="347" width="250" height="42" y="-177.5" clip-path="url(#clipPath2)"/>
      <text x="393.2109" y="-158.8379" clip-path="url(#clipPath2)" font-family="sans-serif" stroke="none" stroke-width="1" xml:space="preserve">ld_dataP3End .. ld_dataP2End-1</text>
      <text x="370.2246" y="-144.1367" clip-path="url(#clipPath2)" font-family="sans-serif" stroke="none" stroke-width="1" xml:space="preserve">*.data.P2, *.bss.P2, P2 stacks of all cores</text>
    </g>
    <g fill="rgb(153,204,255)" text-rendering="geometricPrecision" shape-rendering="geometricPrecision" transform="matrix(0.863,0,0,0.863,176.9123,688.6633)" stroke="rgb(153,204,255)">
      <rect x="347" width="250" height="55" y="-232.5" clip-path="url(#clipPath2)" stroke="none"/>
    </g>
    <g text-rendering="geometricPrecision" stroke-miterlimit="1.45" stroke-width="2" shape-rendering="geometricPrecision" transform="matrix(0.863,0,0,0.863,176.9123,688.6633)" stroke-linecap="butt">
      <rect fill="none" x="347" width="250" height="55" y="-232.5" clip-path="url(#clipPath2)"/>
      <text x="384.5986" y="-214.9873" clip-path="url(#clipPath2)" font-family="sans-serif" stroke="none" stroke-width="1" xml:space="preserve">ld_dataP2End .. ld_dataP1End-1</text>
      <text x="359.9453" y="-200.2861" clip-path="url(#clipPath2)" font-family="sans-serif" stroke="none" stroke-width="1" xml:space="preserve">*.data.P1, *.bss.P1, P1 stacks of all cores,</text>
      <text x="369.9443" y="-185.585" clip-path="url(#clipPath2)" font-family="sans-serif" stroke="none" stroke-width="1" xml:space="preserve">heap, *.data, *.bss (legacy code, C lib)</text>
    </g>
    <g fill="rgb(153,255,255)" text-rendering="geometricPrecision" shape-rendering="geometricPrecision" transform="matrix(0.863,0,0,0.863,176.9123,688.6633)" stroke="rgb(153,255,255)">
      <rect x="347" width="250" height="42" y="-274.5" clip-path="url(#clipPath2)" stroke="none"/>
    </g>
    <g text-rendering="geometricPrecision" stroke-miterlimit="1.45" stroke-width="2" shape-rendering="geometricPrecision" transform="matrix(0.863,0,0,0.863,176.9123,688.6633)" stroke-linecap="butt">
      <rect fill="none" x="347" width="250" height="42" y="-274.5" clip-path="url(#clipPath2)"/>
      <text x="380.2686" y="-256.1367" clip-path="url(#clipPath2)" font-family="sans-serif" stroke="none" stroke-width="1" xml:space="preserve">ld_dataP1End .. ld_sdataOSEnd-1</text>
      <text x="412.9756" y="-241.4355" clip-path="url(#clipPath2)" font-family="sans-serif" stroke="none" stroke-width="1" xml:space="preserve">*.sdata.OS, *.sbss.OS</text>
    </g>
    <g fill="rgb(153,204,255)" text-rendering="geometricPrecision" shape-rendering="geometricPrecision" transform="matrix(0.863,0,0,0.863,176.9123,688.6633)" stroke="rgb(153,204,255)">
      <rect x="347" width="250" height="42" y="-316.5" clip-path="url(#clipPath2)" stroke="none"/>
    </g>
    <g text-rendering="geometricPrecision" stroke-miterlimit="1.45" stroke-width="2" shape-rendering="geometricPrecision" transform="matrix(0.863,0,0,0.863,176.9123,688.6633)" stroke-linecap="butt">
      <rect fill="none" x="347" width="250" height="42" y="-316.5" clip-path="url(#clipPath2)"/>
      <text x="377.2686" y="-298.1367" clip-path="url(#clipPath2)" font-family="sans-serif" stroke="none" stroke-width="1" xml:space="preserve">ld_sdataOSEnd .. ld_sdataP4End-1</text>
      <text x="415.6357" y="-283.4355" clip-path="url(#clipPath2)" font-family="sans-serif" stroke="none" stroke-width="1" xml:space="preserve">*.sdata.P4, *.sbss.P4</text>
    </g>
    <g fill="rgb(153,204,255)" text-rendering="geometricPrecision" shape-rendering="geometricPrecision" transform="matrix(0.863,0,0,0.863,176.9123,688.6633)" stroke="rgb(153,204,255)">
      <rect x="347" width="250" height="55" y="-454.9423" clip-path="url(#clipPath2)" stroke="none"/>
    </g>
    <g text-rendering="geometricPrecision" stroke-miterlimit="1.45" stroke-width="2" shape-rendering="geometricPrecision" transform="matrix(0.863,0,0,0.863,176.9123,688.6633)" stroke-linecap="butt">
      <rect fill="none" x="347" width="250" height="55" y="-454.9423" clip-path="url(#clipPath2)"/>
      <text x="378.5986" y="-437.4296" clip-path="url(#clipPath2)" font-family="sans-serif" stroke="none" stroke-width="1" xml:space="preserve">ld_sdataP2End .. ld_sdataP1End-1</text>
      <text x="413.9688" y="-422.7285" clip-path="url(#clipPath2)" font-family="sans-serif" stroke="none" stroke-width="1" xml:space="preserve">*.sdata.P1, *.sbss.P1,</text>
      <text x="380.626" y="-408.0273" clip-path="url(#clipPath2)" font-family="sans-serif" stroke="none" stroke-width="1" xml:space="preserve">*.sdata, *.sbss (legacy code, C lib)</text>
    </g>
    <g fill="rgb(153,255,255)" text-rendering="geometricPrecision" shape-rendering="geometricPrecision" transform="matrix(0.863,0,0,0.863,176.9123,688.6633)" stroke="rgb(153,255,255)">
      <rect x="347" width="250" height="42" y="-496.9423" clip-path="url(#clipPath2)" stroke="none"/>
    </g>
    <g text-rendering="geometricPrecision" stroke-miterlimit="1.45" stroke-width="2" shape-rendering="geometricPrecision" transform="matrix(0.863,0,0,0.863,176.9123,688.6633)" stroke-linecap="butt">
      <rect fill="none" x="347" width="250" height="42" y="-496.9423" clip-path="url(#clipPath2)"/>
      <text x="373.9316" y="-478.579" clip-path="url(#clipPath2)" font-family="sans-serif" stroke="none" stroke-width="1" xml:space="preserve">ld_sdataP1End .. ld_sdata2OSEnd-1</text>
      <text x="362.6084" y="-463.8779" clip-path="url(#clipPath2)" font-family="sans-serif" stroke="none" stroke-width="1" xml:space="preserve">*.sdata2.OS, *.sbss2.OS, *.uncached.OS</text>
    </g>
    <g fill="rgb(153,204,255)" text-rendering="geometricPrecision" shape-rendering="geometricPrecision" transform="matrix(0.863,0,0,0.863,176.9123,688.6633)" stroke="rgb(153,204,255)">
      <rect x="347" width="250" height="42" y="-665.25" clip-path="url(#clipPath2)" stroke="none"/>
    </g>
    <g text-rendering="geometricPrecision" stroke-miterlimit="1.45" stroke-width="2" shape-rendering="geometricPrecision" transform="matrix(0.863,0,0,0.863,176.9123,688.6633)" stroke-linecap="butt">
      <rect fill="none" x="347" width="250" height="42" y="-665.25" clip-path="url(#clipPath2)"/>
      <text x="371.9248" y="-646.8867" clip-path="url(#clipPath2)" font-family="sans-serif" stroke="none" stroke-width="1" xml:space="preserve">ld_sdata2P3End .. ld_sdata2P2End-1</text>
      <text x="366.5986" y="-632.1855" clip-path="url(#clipPath2)" font-family="sans-serif" stroke="none" stroke-width="1" xml:space="preserve">*.sdata2.P2, *.sbss2.P2, *.uncached.P2</text>
    </g>
    <g fill="rgb(153,204,255)" text-rendering="geometricPrecision" shape-rendering="geometricPrecision" transform="matrix(0.863,0,0,0.863,176.9123,688.6633)" stroke="rgb(153,204,255)">
      <rect x="347" width="250" height="55" y="-720.5" clip-path="url(#clipPath2)" stroke="none"/>
    </g>
    <g text-rendering="geometricPrecision" stroke-miterlimit="1.45" stroke-width="2" shape-rendering="geometricPrecision" transform="matrix(0.863,0,0,0.863,176.9123,688.6633)" stroke-linecap="butt">
      <rect fill="none" x="347" width="250" height="55" y="-720.5" clip-path="url(#clipPath2)"/>
      <text x="371.9248" y="-702.9873" clip-path="url(#clipPath2)" font-family="sans-serif" stroke="none" stroke-width="1" xml:space="preserve">ld_sdata2P2End .. ld_sdata2P1End-1</text>
      <text x="364.9316" y="-688.2861" clip-path="url(#clipPath2)" font-family="sans-serif" stroke="none" stroke-width="1" xml:space="preserve">*.sdata2.P1, *.sbss2.P1, *.uncached.P1,</text>
      <text x="373.9521" y="-673.585" clip-path="url(#clipPath2)" font-family="sans-serif" stroke="none" stroke-width="1" xml:space="preserve">*.sdata2, *.sbss2 (legacy code, C lib)</text>
    </g>
    <g fill="rgb(153,204,255)" text-rendering="geometricPrecision" shape-rendering="geometricPrecision" transform="matrix(0.863,0,0,0.863,176.9123,688.6633)" stroke="rgb(153,204,255)">
      <rect x="347" width="250" height="42" y="-93.5" clip-path="url(#clipPath2)" stroke="none"/>
    </g>
    <g text-rendering="geometricPrecision" stroke-miterlimit="1.45" stroke-width="2" shape-rendering="geometricPrecision" transform="matrix(0.863,0,0,0.863,176.9123,688.6633)" stroke-linecap="butt">
      <rect fill="none" x="347" width="250" height="42" y="-93.5" clip-path="url(#clipPath2)"/>
      <text x="382.6035" y="-75.1367" clip-path="url(#clipPath2)" font-family="sans-serif" stroke="none" stroke-width="1" xml:space="preserve">ld_dataP4Start .. ld_dataP4End-1</text>
      <text x="361.6123" y="-60.4355" clip-path="url(#clipPath2)" font-family="sans-serif" stroke="none" stroke-width="1" xml:space="preserve">*.data.P4, *.bss.P4, P4 stacks of all cores</text>
    </g>
    <g fill="rgb(153,204,255)" text-rendering="geometricPrecision" shape-rendering="geometricPrecision" transform="matrix(0.863,0,0,0.863,176.9123,688.6633)" stroke="rgb(153,204,255)">
      <rect x="347" width="250" height="42" y="-135.5" clip-path="url(#clipPath2)" stroke="none"/>
    </g>
    <g text-rendering="geometricPrecision" stroke-miterlimit="1.45" stroke-width="2" shape-rendering="geometricPrecision" transform="matrix(0.863,0,0,0.863,176.9123,688.6633)" stroke-linecap="butt">
      <rect fill="none" x="347" width="250" height="42" y="-135.5" clip-path="url(#clipPath2)"/>
      <text x="384.5986" y="-117.1367" clip-path="url(#clipPath2)" font-family="sans-serif" stroke="none" stroke-width="1" xml:space="preserve">ld_dataP4End .. ld_dataP3End-1</text>
      <text x="361.6123" y="-102.4355" clip-path="url(#clipPath2)" font-family="sans-serif" stroke="none" stroke-width="1" xml:space="preserve">*.data.P3, *.bss.P3, P3 stacks of all cores</text>
    </g>
    <g fill="rgb(153,204,255)" text-rendering="geometricPrecision" shape-rendering="geometricPrecision" transform="matrix(0.863,0,0,0.863,176.9123,688.6633)" stroke="rgb(153,204,255)">
      <rect x="347" width="250" height="42" y="-358.4423" clip-path="url(#clipPath2)" stroke="none"/>
    </g>
    <g text-rendering="geometricPrecision" stroke-miterlimit="1.45" stroke-width="2" shape-rendering="geometricPrecision" transform="matrix(0.863,0,0,0.863,176.9123,688.6633)" stroke-linecap="butt">
      <rect fill="none" x="347" width="250" height="42" y="-358.4423" clip-path="url(#clipPath2)"/>
      <text x="378.5986" y="-340.079" clip-path="url(#clipPath2)" font-family="sans-serif" stroke="none" stroke-width="1" xml:space="preserve">ld_sdataP4End .. ld_sdataP3End-1</text>
      <text x="415.6357" y="-325.3779" clip-path="url(#clipPath2)" font-family="sans-serif" stroke="none" stroke-width="1" xml:space="preserve">*.sdata.P3, *.sbss.P3</text>
    </g>
    <g fill="rgb(153,204,255)" text-rendering="geometricPrecision" shape-rendering="geometricPrecision" transform="matrix(0.863,0,0,0.863,176.9123,688.6633)" stroke="rgb(153,204,255)">
      <rect x="347" width="250" height="42" y="-400.4423" clip-path="url(#clipPath2)" stroke="none"/>
    </g>
    <g text-rendering="geometricPrecision" stroke-miterlimit="1.45" stroke-width="2" shape-rendering="geometricPrecision" transform="matrix(0.863,0,0,0.863,176.9123,688.6633)" stroke-linecap="butt">
      <rect fill="none" x="347" width="250" height="42" y="-400.4423" clip-path="url(#clipPath2)"/>
      <text x="378.5986" y="-382.079" clip-path="url(#clipPath2)" font-family="sans-serif" stroke="none" stroke-width="1" xml:space="preserve">ld_sdataP3End .. ld_sdataP2End-1</text>
      <text x="415.6357" y="-367.3779" clip-path="url(#clipPath2)" font-family="sans-serif" stroke="none" stroke-width="1" xml:space="preserve">*.sdata.P2, *.sbss.P2</text>
    </g>
    <g fill="rgb(153,204,255)" text-rendering="geometricPrecision" shape-rendering="geometricPrecision" transform="matrix(0.863,0,0,0.863,176.9123,688.6633)" stroke="rgb(153,204,255)">
      <rect x="347" width="250" height="42" y="-581" clip-path="url(#clipPath2)" stroke="none"/>
    </g>
    <g text-rendering="geometricPrecision" stroke-miterlimit="1.45" stroke-width="2" shape-rendering="geometricPrecision" transform="matrix(0.863,0,0,0.863,176.9123,688.6633)" stroke-linecap="butt">
      <rect fill="none" x="347" width="250" height="42" y="-581" clip-path="url(#clipPath2)"/>
      <text x="366.2529" y="-562.6367" clip-path="url(#clipPath2)" font-family="sans-serif" stroke="none" stroke-width="1" xml:space="preserve">ld_dataSharedEnd .. ld_sdata2P4End-1</text>
      <text x="366.5986" y="-547.9355" clip-path="url(#clipPath2)" font-family="sans-serif" stroke="none" stroke-width="1" xml:space="preserve">*.sdata2.P4, *.sbss2.P4, *.uncached.P4</text>
    </g>
    <g fill="rgb(153,204,255)" text-rendering="geometricPrecision" shape-rendering="geometricPrecision" transform="matrix(0.863,0,0,0.863,176.9123,688.6633)" stroke="rgb(153,204,255)">
      <rect x="347" width="250" height="42" y="-623" clip-path="url(#clipPath2)" stroke="none"/>
    </g>
    <g text-rendering="geometricPrecision" stroke-miterlimit="1.45" stroke-width="2" shape-rendering="geometricPrecision" transform="matrix(0.863,0,0,0.863,176.9123,688.6633)" stroke-linecap="butt">
      <rect fill="none" x="347" width="250" height="42" y="-623" clip-path="url(#clipPath2)"/>
      <text x="371.9248" y="-604.6367" clip-path="url(#clipPath2)" font-family="sans-serif" stroke="none" stroke-width="1" xml:space="preserve">ld_sdata2P4End .. ld_sdata2P3End-1</text>
      <text x="366.5986" y="-589.9355" clip-path="url(#clipPath2)" font-family="sans-serif" stroke="none" stroke-width="1" xml:space="preserve">*.sdata2.P3, *.sbss2.P3, *.uncached.P3</text>
    </g>
    <g fill="rgb(255,255,136)" text-rendering="geometricPrecision" shape-rendering="geometricPrecision" transform="matrix(0.863,0,0,0.863,176.9123,688.6633)" stroke="rgb(255,255,136)">
      <rect x="313" width="34" height="489.7837" y="-486.2837" clip-path="url(#clipPath2)" stroke="none"/>
    </g>
    <g text-rendering="geometricPrecision" stroke-miterlimit="1.45" stroke-width="2" shape-rendering="geometricPrecision" transform="matrix(0.863,0,0,0.863,176.9123,688.6633)" stroke-linecap="butt">
      <rect fill="none" x="313" width="34" height="489.7837" y="-486.2837" clip-path="url(#clipPath2)"/>
    </g>
    <g text-rendering="geometricPrecision" stroke-miterlimit="1.45" shape-rendering="geometricPrecision" font-family="sans-serif" transform="matrix(-0,-0.863,0.863,-0,453.6284,567.55)" stroke-linecap="butt">
      <text x="2" xml:space="preserve" y="14.0645" clip-path="url(#clipPath6)" stroke="none">Chached (performance on local core)</text>
    </g>
    <g fill="rgb(153,204,255)" text-rendering="geometricPrecision" shape-rendering="geometricPrecision" transform="matrix(0.863,0,0,0.863,176.9123,688.6633)" stroke="rgb(153,204,255)">
      <rect x="-66" width="250" height="64" y="-364.5" clip-path="url(#clipPath2)" stroke="none"/>
    </g>
    <g text-rendering="geometricPrecision" stroke-miterlimit="1.45" stroke-width="2" shape-rendering="geometricPrecision" transform="matrix(0.863,0,0,0.863,176.9123,688.6633)" stroke-linecap="butt">
      <rect fill="none" x="-66" width="250" height="64" y="-364.5" clip-path="url(#clipPath2)"/>
      <text x="-65.4092" y="-335.1367" clip-path="url(#clipPath2)" font-family="sans-serif" stroke="none" stroke-width="1" xml:space="preserve">0x4000_0000 - ld_cachedRamEnd-1 (variable)</text>
      <text x="-47.3945" y="-320.4355" clip-path="url(#clipPath2)" font-family="sans-serif" stroke="none" stroke-width="1" xml:space="preserve">Cached RAM space used by application</text>
      <path fill="none" d="M183.1563 -471.0263 L278.9883 -796.4603" stroke-width="1" clip-path="url(#clipPath2)"/>
      <path fill="none" stroke-dasharray="0,8" d="M183.6713 -428.5161 L279 -720.5209" stroke-dashoffset="2" clip-path="url(#clipPath2)" stroke-linecap="round"/>
      <path fill="none" stroke-dasharray="0,8" d="M280 -486.2661 L184.0066 -363.3448" stroke-dashoffset="2" clip-path="url(#clipPath2)" stroke-linecap="round"/>
      <path fill="none" d="M184.0088 -301.654 L279 3.5" stroke-width="1" clip-path="url(#clipPath2)"/>
    </g>
  </g>
</svg>
